<svg width="564" height="553" viewBox="0 0 564 553" fill="none" xmlns="http://www.w3.org/2000/svg">
<path d="M0.0561382 228.457C0.0561437 354.155 101.935 455.984 227.576 455.984C268.967 456.049 309.584 444.767 345.012 423.363L455.324 533.675L455.708 533.291C466.977 545.065 482.975 552.296 501.055 552.296C535.987 552.303 563.303 524.475 563.296 489.579C563.289 471.754 556.158 455.813 544.554 444.437L544.831 444.16L431.007 330.343C446.882 298.728 455.131 263.834 455.096 228.457C455.096 102.752 353.231 0.944015 227.576 0.944021C101.935 0.944026 0.0561327 102.759 0.0561382 228.457ZM365.631 227.078C365.631 305.643 301.968 369.285 223.431 369.285C144.908 369.285 81.231 305.643 81.231 227.078C81.231 148.512 144.901 84.8847 223.431 84.8847C301.968 84.8776 365.631 148.512 365.631 227.078Z" fill="#888787"/>
</svg>
